<mxfile host="app.diagrams.net" modified="2024-04-26T14:35:44.415Z" agent="Mozilla/5.0 (X11; Linux x86_64) AppleWebKit/537.36 (KHTML, like Gecko) Chrome/119.0.0.0 Safari/537.36" version="24.3.0" etag="FFYTyLObDZg7aHpbYnCO" type="github">
  <diagram name="PÃ¡gina-1" id="x_wCvYvA1LmcMQQx4gfD">
    <mxGraphModel>
      <root>
        <mxCell id="0" />
        <mxCell id="1" parent="0" />
      </root>
    </mxGraphModel>
  </diagram>
</mxfile>
